<?xml version="1.0" encoding="utf-8"?>
<!-- Generator: Adobe Illustrator 25.0.0, SVG Export Plug-In . SVG Version: 6.00 Build 0)  -->
<svg version="1.1" id="Layer_1" xmlns="http://www.w3.org/2000/svg" xmlns:xlink="http://www.w3.org/1999/xlink" x="0px" y="0px"
	 viewBox="0 0 2800 2000" style="enable-background:new 0 0 2800 2000;" xml:space="preserve">
<style type="text/css">
	.st0{fill:url(#SVGID_3_);}
	.st1{clip-path:url(#SVGID_5_);fill:url(#SVGID_6_);}
	.st2{opacity:0.5;clip-path:url(#SVGID_8_);fill:#C6AE8F;enable-background:new    ;}
	.st3{opacity:0.65;clip-path:url(#SVGID_10_);fill:#C6AE8D;enable-background:new    ;}
	.st4{fill:url(#SVGID_11_);}
	.st5{display:none;fill:#640619;}
	.st6{display:none;}
	.st7{display:inline;fill:url(#SVGID_12_);}
	.st8{display:inline;}
	.st9{display:inline;clip-path:url(#SVGID_14_);fill:url(#SVGID_15_);}
	.st10{display:inline;opacity:0.51;clip-path:url(#SVGID_17_);fill:url(#SVGID_18_);enable-background:new    ;}
	.st11{display:inline;opacity:0.65;clip-path:url(#SVGID_20_);fill:url(#SVGID_21_);enable-background:new    ;}
</style>
<g>
	<g>
		
			<linearGradient id="SVGID_3_" gradientUnits="userSpaceOnUse" x1="0" y1="1000" x2="156.0493" y2="1000" gradientTransform="matrix(1 0 0 -1 0 2000)">
			<stop  offset="0" style="stop-color:#8B0E31"/>
			<stop  offset="0.5056" style="stop-color:#56081F"/>
			<stop  offset="1" style="stop-color:#23020D"/>
		</linearGradient>
		<polygon id="SVGID_1_" class="st0" points="0,2000 0,0 2800,0 2800,2000 		"/>
	</g>
	<g>
		<defs>
			<rect id="SVGID_4_" width="2800" height="2000"/>
		</defs>
		<clipPath id="SVGID_5_">
			<use xlink:href="#SVGID_4_"  style="overflow:visible;"/>
		</clipPath>
		
			<linearGradient id="SVGID_6_" gradientUnits="userSpaceOnUse" x1="-161.9816" y1="1000" x2="2810.2468" y2="1000" gradientTransform="matrix(1 0 0 -1 0 2000)">
			<stop  offset="1.717987e-02" style="stop-color:#D8C1A3"/>
			<stop  offset="0.1199" style="stop-color:#FFEBCD"/>
			<stop  offset="0.524" style="stop-color:#FFEBCD"/>
			<stop  offset="0.9619" style="stop-color:#F9F0E3"/>
			<stop  offset="0.9751" style="stop-color:#F9F0E4"/>
		</linearGradient>
		<polygon class="st1" points="2845.3,-35.7 2845.3,2035.7 -45.3,2035.7 -45.3,-35.7 		"/>
	</g>
	<g>
		<defs>
			<rect id="SVGID_7_" width="2800" height="2000"/>
		</defs>
		<clipPath id="SVGID_8_">
			<use xlink:href="#SVGID_7_"  style="overflow:visible;"/>
		</clipPath>
		<path class="st2" d="M603,1969.4c-51.9,4.4-109.1,28.2-164.1,57.9c86.7-3.2,169.6-17.1,242.8-36.5c-16.6-14.5-37.5-22-64.8-22
			C612.5,1968.9,607.8,1969.1,603,1969.4 M289.1,1971.6c-13.3,15.4-31.9,29.7-47.8,43.6c29.8,5.2,59.2,8.5,88.6,10.3
			c3.4-1.6,6.8-3.4,9.9-5.8c16.3-11.7,29.7-27.4,43.2-42.3c9.8-10.9,17.3-23.5,26.8-35.2c8.8-11.1,18.9-21.8,28.6-33.4
			C378,1910.6,327.4,1927.5,289.1,1971.6 M-46,1863.9c-18.3-0.7-35.7-1.7-53.3-3.8c-0.2,1.5,19.5,20.4,31.1,29.2
			c-8.4,7.1-16.2,13.5-24.2,19.9c84-3.3,146.4,35.6,208.9,74.5c-8-50.4-79.4-118.2-166-130.6C-48.3,1856.6-47.3,1859.9-46,1863.9
			 M122.7,1852.9c-20.5,16.7-20,44.7-3,66.7c5.7,7.5,12.2,13.9,16.6,19c17.8-14.6,33.1-29.6,50.3-42.8
			c38.2-29.4,49.2-63.5,43.7-98.7c-1.2-8.6-3.8-17-6.1-28C189.7,1799.8,154.9,1826.3,122.7,1852.9 M836.9,1713.5
			c-1.6-0.9-4-1.8-6.5-3.1c-18.2-10.2-86.2-25.5-121.1,12c-24,26.6-52.8,93.4-8.7,122.3c10.8,6.8,18.6,13.4,35.8,5.1
			c14.3-7.3,23.8-20.5,30.4-35.7c1.3-2.8,1.5-5.8,2.4-10.1c-2.7,2.1-4.2,2.9-5.6,4.5c-14.2,15.5-22.5,19.5-29.4,14.8
			c-6.9-4.2-12.3-29.7-4.5-43.8c20.9-37.5,60.3-50.1,79.8-38.1c15.5,9.6,19,30.2,6.6,60.8c-14.6,35.9-38.9,64.6-68.3,76.7
			c-26.8,11-53.1,15.3-79.4,18.8c-16.4,1.9-32.6-1.9-49.6-5.7c-21.4-4.8-43.8-9.6-67.9-2.9c-65.1,18.6-141,78.5-184.2,138.5
			c8.6,0.5,17.2,0.7,25.9,0.7c12.5-14.7,27.4-29.2,44.9-42.5c50.1-38.6,99.8-58.5,146.5-56.4c37,1.9,69.7,8.9,104,10.4
			c21,1,41.5,2.3,63.4-1.6c30.6-5.6,60.4-29,86.3-71.5c-8.3-1.7-16-3.3-24.5-5.4c35.9-32.2,64.6-69.9,74-119.8
			c-14.9,10.3-28.6,18.9-43,27.3c9.5-20,18.8-38.9,24.6-57.4c6.1-19.6,5.4-35.5-1.6-46.3C857,1681.4,847.9,1696.5,836.9,1713.5
			 M-11.1,1598.1c-16.8-1-50.4-2.3-50.7-1c94.1,47.6,121.8,113,137.1,193.2c20.3-9.8,40.2-70.3,36.7-102
			c-4.7-44.1-29.2-76.2-69.4-106.8c-1.1,6.1-1.8,9.6-3,14.2c-21.9-10-35.6-31.3-63.5-35.8C-19.4,1573.6-15.4,1585.7-11.1,1598.1
			 M382.2,1527.4L382.2,1527.4c-19.2,8.2-42.2,31.1-46.5,46.9c9.4-2.4,18.1-5.6,26.2-7c17.6-2.2,29.5,6.5,32.6,22.8
			c2.6,13.9-7.6,38.3-21.6,50.1c-22.8,19.5-47,36.6-70.6,54.5c-27.6,20.3-39.9,44.5-37.8,71.9c2.5,36.7,33.3,62.8,38.7,68.1
			c-47.8,60.7-104.5,111.3-162.1,157.3c15.9,4.6,31.7,9,47.6,12.5c52-44.2,102.6-91.1,151.5-144.8c41.6,18.3,92.6,22.4,132.5-8.4
			c25.7-19.9,37.6-44,47.9-69.3c7.8-19.1,13.8-38.6,20.4-58.1c9.2-26.5,28.4-47.9,48.6-55.8c18.5-7.2,29.6,1.9,31.2,26.1
			c0.1,3.2,0.3,6.2,0.7,11.5c12.7-16.1,17.4-32.4,20.9-47.6c6.2-29-0.6-46.8-12.8-58.4c-14.5-13.5-38.8-14.6-63.5,4.2
			c-9.7,6.9-22,20.9-31,34.5c-11.8,18-21.4,36.2-30.4,54.7c-29.2,38.8-53,64-69.2,79.1c18-26.9,31.7-55.4,43.6-84.2
			c10.4-24.9,19-50.1,27.3-75.5c1.1-3.1,1.6-6.5,2.8-12.2c-4.4,4.2-6.9,5.8-8.8,8.3c-34.5,41.7-73.3,79.5-111.9,116.5
			c-3.8,3.6-6.8,7.7-10.4,11.6c1.6-19.9,16.2-45.7,31.4-68c5.7-5.8,11-11.6,16.1-17.8c15.8-18.7,29.6-41.3,38.2-63.1
			c11.1-28.6,1.6-47-15-58.1c-9.7-6.6-20.4-10.3-32.6-10.3C406.2,1519.5,394.7,1522.1,382.2,1527.4 M157,1411.5
			c-4.1-14.5-8.4-29.1-12.9-44.8c-19.1,3.8-30.5,18.4-38.8,34.1c-8.1,15.6-12.3,32.9-18.6,48.8C79,1443,71.2,1436,63.3,1429
			c-24.7,29.2-28.7,59.7-6.4,95.5c18.3,29.1,39.9,55.8,60.7,82.2c23.6,30.3,47.5,59.2,49.2,98.8c1.7,37-18.2,69.4-49.6,95.8
			c-25,21.1-52.7,28.9-87.5,29.1c-1.1,0-4,10.3-4.6,12.3c3.1,14.5,29.1,7.9,42.1,4.6c98.2-24.9,161.7-99.4,132.2-174.9
			c-11.3-30-49.6-77.7-64.3-106.8c-12.2-23.8-23.2-47.9-17.9-76.2c6.5-33.2,38.9-65.7,80.1-58.8c23.4,3.8,41.8,23.1,41.7,46.6
			c-0.2,15.1-13.1,35.1-28,41.6c-9.7,4-19.7,5.5-27.2-1.6c-6.8-6.8-6.8-15.3-2.3-24.5c0.7-1.5,0.9-3.1,1.3-4.9
			c-15.1,1.2-34.1,21.8-32,37.9c4,28.2,67.3,50.6,96.4,31.5c26.7-17.3,41-57.8,31.5-90.4c-9.3-31.5-23.4-48-53.4-57.6
			c-3.2-1.3-6-2.6-8.3-3.9c6-15.1,10.9-28.2,15.9-42.5c-1.9-0.1-3.8-0.1-5.7-0.1C194.3,1362.5,175.8,1383.2,157,1411.5
			 M625.1,1110.5L625.1,1110.5c-9.2,12.1-14.2,32.2-16.4,58.1c-2.2,26.2-1.3,49.7,0.6,72.1c-9.7-10.6-28.8-14.1-39-6.3
			c2.7,10.4,6.2,19.9,7.5,31c1.1,7.8,1.1,16.3,1.2,24.6c-18,13.1-38.7,31-41.5,64.3c-0.5,5.3-0.3,10.2-0.3,15.3
			c-6.7-21.2-18.4-42.8-24.2-61.2c-5.3-16.4-14.7-32.1-23.9-40.4c-2.7-2.7-6.2-3.5-9.4-5.5c-2,5.5-3.6,11.2-5.6,16.2
			c-0.8,2.5-1.2,5.1-2.2,10c-6.2-6.4-11.1-12.2-17.3-16.7c-4.6-3.3-10.1-4.8-15.8-5.9c-11.8-2.6-13.8,0.2-13.8,17.4
			c0,5.6-0.2,11.6-0.5,19c-25.7-9.9-39.9,10.9-39.4,11.5c5.4,5.1,10.2,8.2,11.4,16c1.2,7.4-1.7,19-5.4,29
			c-7.4,19.9-2.4,53.7,11.8,66.9c10.2,9.5,29.2,7.7,42.6-5.3c15.5-14.4,20.2-58.7,11.6-72.6c-5.3-8.3-8.9-8.4-19.1-1.4
			c2.6,5.8,8,11.4,7.3,17.9c-0.7,7.4-5.9,17.6-11.1,23.4c-7.2,7.8-15.3,8.5-21.1,2.1c-10.1-11.4-10.3-30.9-0.9-49.4
			c2.6-5.1,9.3-14.5,12.7-17.1c14.5-10.6,31.7-13.6,42.3-6.1c11.8,8.4,19,21.9,20.4,41.9c2.7,35-15.4,89.5-13.7,124.3
			c1.2,32.2,24.2,45,50.9,50.2c11.8,2.3,42.3,5.8,48.6,8.1c31.8,11.4,59.5,9.7,76.4-19.7c17.4-30.1,26.9-86.9,45.5-116.8
			c10.8-17,23.2-25.7,37.6-28.1c13.1-1.8,26.9,8.4,35,24.6c2,3.8,3.3,15.2,3.5,21.1c-0.4,20.6-9.7,38-23.8,43.3
			c-8.4,3-15.3-1-17.9-11.3c-1.9-7.4-1.8-18.9,1.1-26c2.3-6,9.5-8.4,14.5-12.4c-5.8-10.9-9.1-12.7-17.5-7.6
			c-14.2,8.5-28.9,49.3-21.7,69c5.6,17.6,21.8,27.7,35.2,23.9c19-5.4,37.2-32,40.1-53.5c1.3-10.3,4.2-21.9,8.5-28.1
			c4.8-6.5,10.3-7.1,17.8-8.9c0.5-0.2,1-1.5,2-3c-4.1-22.5-19.6-18.9-31.7-25c3.1-6.9,5.6-12.1,8.4-17.3c8-15.3,7.5-18.7-4.3-21.4
			c-5.4-1.5-11-2.9-16.8-1.9c-7.4,1-14.6,4.2-23,7c1.3-4.9,2.1-7.4,2.6-9.8c0.8-5.6,1.9-11.5,2.7-17.1c-1.5,0.2-2.8,0.2-4,0
			c-2.4,0-4.7-0.2-7.2,0.5c-11.8,3.3-19.7,10.7-34.8,19.5c-14,8.3-32,29.2-46.7,50.2c1.7-7.3,3.8-14.4,6.5-20.9
			c9.5-24.2,7.7-39.1-1.7-50.7l-10.7-17.3c1.1-2.5,2.3-5.5,3.4-8.9c5-16.2,12.6-28.8,18.6-44.9c-2.7-10.2-20.9-19.7-32.9-15.5
			c6.8-21.9,11.5-45.8,11.7-73.6c-0.2-25.4-6.2-41-13-53.1c-1-1.7-2.5-2.5-3.9-2.5C630.2,1106,627.3,1108,625.1,1110.5"/>
	</g>
	<g>
		<defs>
			<rect id="SVGID_9_" width="2800" height="2000"/>
		</defs>
		<clipPath id="SVGID_10_">
			<use xlink:href="#SVGID_9_"  style="overflow:visible;"/>
		</clipPath>
		<path class="st3" d="M2187.2-59.8c51.9-4.4,109.1-28.2,164.1-57.9c-86.7,3.2-169.6,17.1-242.8,36.5c16.6,14.5,37.5,22,64.8,22
			C2177.7-59.3,2182.4-59.6,2187.2-59.8 M2501.1-62.1c13.3-15.4,31.9-29.7,47.8-43.6c-29.8-5.2-59.2-8.5-88.6-10.3
			c-3.4,1.6-6.8,3.4-9.9,5.8c-16.3,11.7-29.7,27.4-43.2,42.3c-9.8,10.9-17.3,23.5-26.8,35.2c-8.8,11.1-18.9,21.8-28.6,33.4
			C2412.2-1.1,2462.9-18,2501.1-62.1 M2836.3,45.7c18.3,0.7,35.7,1.7,53.3,3.8c0.2-1.5-19.5-20.4-31.1-29.2
			c8.4-7.1,16.2-13.5,24.2-19.9c-84,3.3-146.4-35.6-208.9-74.5c8,50.4,79.4,118.2,166,130.6C2838.6,52.9,2837.6,49.6,2836.3,45.7
			 M2667.6,56.6c20.5-16.7,20-44.7,3-66.7c-5.7-7.5-12.2-13.9-16.6-19c-17.8,14.6-33.1,29.6-50.3,42.8
			c-38.2,29.4-49.2,63.5-43.7,98.7c1.2,8.6,3.8,17,6.1,28C2600.5,109.7,2635.3,83.2,2667.6,56.6 M1953.3,196c1.6,0.9,4,1.8,6.5,3.1
			c18.2,10.2,86.2,25.5,121.1-12c24-26.6,52.8-93.4,8.7-122.3c-10.8-6.8-18.6-13.4-35.8-5.1c-14.3,7.3-23.8,20.5-30.4,35.7
			c-1.3,2.8-1.5,5.8-2.4,10.1c2.7-2.1,4.2-2.9,5.6-4.5c14.2-15.5,22.5-19.5,29.4-14.8c6.9,4.2,12.3,29.7,4.5,43.8
			c-20.9,37.5-60.3,50.1-79.8,38.1c-15.5-9.6-19-30.2-6.6-60.8c14.6-35.9,38.9-64.6,68.3-76.7c26.8-11,53.1-15.3,79.4-18.8
			c16.4-1.9,32.6,1.9,49.6,5.7c21.4,4.8,43.8,9.6,67.9,2.9c65.1-18.6,141-78.5,184.2-138.5c-8.6-0.5-17.2-0.7-25.9-0.7
			c-12.5,14.7-27.4,29.2-44.9,42.5c-50.1,38.6-99.8,58.5-146.5,56.4c-37-1.9-69.7-8.9-104-10.4c-21-1-41.5-2.3-63.4,1.6
			c-30.6,5.6-60.4,29-86.3,71.5c8.3,1.7,16,3.3,24.5,5.4c-35.9,32.2-64.6,69.9-74,119.8c14.9-10.3,28.6-18.9,43-27.3
			c-9.5,20-18.8,38.9-24.6,57.4c-6.1,19.6-5.4,35.5,1.6,46.3C1933.2,228.1,1942.4,213.1,1953.3,196 M2801.4,311.4
			c16.8,1,50.4,2.3,50.7,1c-94.1-47.6-121.8-113-137.1-193.2c-20.3,9.8-40.2,70.3-36.7,102c4.7,44.1,29.2,76.2,69.4,106.8
			c1.1-6.1,1.8-9.6,3-14.2c21.9,10,35.6,31.3,63.5,35.8C2809.7,335.9,2805.6,323.9,2801.4,311.4 M2408,382.1L2408,382.1
			c19.2-8.2,42.2-31.1,46.5-46.9c-9.4,2.4-18.1,5.6-26.2,7c-17.6,2.2-29.5-6.5-32.6-22.8c-2.6-13.9,7.6-38.3,21.6-50.1
			c22.8-19.5,47-36.6,70.6-54.5c27.6-20.3,39.9-44.5,37.8-71.9c-2.5-36.7-33.3-62.8-38.7-68.1c47.8-60.7,104.5-111.3,162.1-157.3
			c-15.9-4.6-31.7-9-47.6-12.5C2549.6-51,2499-4.1,2450,49.6c-41.6-18.3-92.6-22.4-132.5,8.4c-25.7,19.9-37.6,44-47.9,69.3
			c-7.8,19.1-13.8,38.6-20.4,58.1c-9.2,26.5-28.4,47.9-48.6,55.8c-18.5,7.2-29.6-1.9-31.2-26.1c-0.1-3.2-0.3-6.2-0.7-11.5
			c-12.7,16.1-17.4,32.4-20.9,47.6c-6.2,29,0.6,46.8,12.8,58.4c14.5,13.5,38.8,14.6,63.5-4.2c9.7-6.9,22-20.9,31-34.5
			c11.8-18,21.4-36.2,30.4-54.7c29.2-38.8,53-64,69.2-79.1c-18,26.9-31.7,55.4-43.6,84.2c-10.4,24.9-19,50.1-27.3,75.5
			c-1.1,3.1-1.6,6.5-2.8,12.2c4.4-4.2,6.9-5.8,8.8-8.3c34.5-41.7,73.3-79.5,111.9-116.5c3.8-3.6,6.8-7.7,10.4-11.6
			c-1.6,19.9-16.2,45.7-31.4,68c-5.7,5.8-11,11.6-16.1,17.8c-15.8,18.7-29.6,41.3-38.2,63.1c-11.1,28.6-1.6,47,15,58.1
			c9.7,6.6,20.4,10.3,32.6,10.3C2384.1,390,2395.5,387.4,2408,382.1 M2633.2,498.1c4.1,14.5,8.4,29.1,12.9,44.8
			c19.1-3.8,30.5-18.4,38.8-34.1c8.1-15.6,12.3-32.9,18.6-48.8c7.7,6.6,15.5,13.6,23.4,20.6c24.7-29.2,28.7-59.7,6.4-95.5
			c-18.3-29.1-39.9-55.8-60.7-82.2c-23.6-30.3-47.5-59.2-49.2-98.8c-1.7-37,18.2-69.4,49.6-95.8c25-21.1,52.7-28.9,87.5-29.1
			c1.1,0,4-10.3,4.6-12.3c-3.1-14.5-29.1-7.9-42.1-4.6c-98.2,24.9-161.7,99.4-132.2,174.9c11.3,30,49.6,77.7,64.3,106.8
			c12.2,23.8,23.2,47.9,17.9,76.2c-6.5,33.2-38.9,65.7-80.1,58.8c-23.4-3.8-41.8-23.1-41.7-46.6c0.2-15.1,13.1-35.1,28-41.6
			c9.7-4,19.7-5.5,27.2,1.6c6.8,6.8,6.8,15.3,2.3,24.5c-0.7,1.5-0.9,3.1-1.3,4.9c15.1-1.2,34.1-21.8,32-37.9
			c-4-28.2-67.3-50.6-96.4-31.5c-26.7,17.3-41,57.8-31.5,90.4c9.3,31.5,23.4,48,53.4,57.6c3.2,1.3,6,2.6,8.3,3.9
			c-6,15.1-10.9,28.2-15.9,42.5c1.9,0.1,3.8,0.1,5.7,0.1C2595.9,547,2614.4,526.3,2633.2,498.1 M2165.1,799L2165.1,799
			c9.2-12.1,14.2-32.2,16.4-58.1c2.2-26.2,1.3-49.7-0.6-72.1c9.7,10.6,28.8,14.1,39,6.3c-2.7-10.4-6.2-19.9-7.5-31
			c-1.1-7.8-1.1-16.3-1.2-24.6c18-13.1,38.7-31,41.5-64.3c0.5-5.3,0.3-10.2,0.3-15.3c6.7,21.2,18.4,42.8,24.2,61.2
			c5.3,16.4,14.7,32.1,23.9,40.4c2.7,2.7,6.2,3.5,9.4,5.5c2-5.5,3.6-11.2,5.6-16.2c0.8-2.5,1.2-5.1,2.2-10
			c6.2,6.4,11.1,12.2,17.3,16.7c4.6,3.3,10.1,4.8,15.8,5.9c11.8,2.6,13.8-0.2,13.8-17.4c0-5.6,0.2-11.6,0.5-19
			c25.7,9.9,39.9-10.9,39.4-11.5c-5.4-5.1-10.2-8.2-11.4-16c-1.2-7.4,1.7-19,5.4-29c7.4-19.9,2.4-53.7-11.8-66.9
			c-10.2-9.5-29.2-7.7-42.6,5.3c-15.5,14.4-20.2,58.7-11.6,72.6c5.3,8.3,8.9,8.4,19.1,1.4c-2.6-5.8-8-11.4-7.3-17.9
			c0.7-7.4,5.9-17.6,11.1-23.4c7.2-7.8,15.3-8.5,21.1-2.1c10.1,11.4,10.3,30.9,0.9,49.4c-2.6,5.1-9.3,14.5-12.7,17.1
			c-14.5,10.6-31.7,13.6-42.3,6.1c-11.8-8.4-19-21.9-20.4-41.9c-2.7-35,15.4-89.5,13.7-124.3c-1.2-32.2-24.2-45-50.9-50.2
			c-11.8-2.3-42.3-5.8-48.6-8.1c-31.8-11.4-59.5-9.7-76.4,19.7c-17.4,30.1-26.9,86.9-45.5,116.8c-10.8,17-23.2,25.7-37.6,28.1
			c-13.1,1.8-26.9-8.4-35-24.6c-2-3.8-3.3-15.2-3.5-21.1c0.4-20.6,9.7-38,23.8-43.3c8.4-3,15.3,1,17.9,11.3c1.9,7.4,1.8,18.9-1.1,26
			c-2.3,6-9.5,8.4-14.5,12.4c5.8,10.9,9.1,12.7,17.5,7.6c14.2-8.5,28.9-49.3,21.7-69c-5.6-17.6-21.8-27.7-35.2-23.9
			c-19,5.4-37.2,32-40.1,53.5c-1.3,10.3-4.2,21.9-8.5,28.1c-4.8,6.5-10.3,7.1-17.8,8.9c-0.5,0.2-1,1.5-2,3
			c4.1,22.5,19.6,18.9,31.7,25c-3.1,6.9-5.6,12.1-8.4,17.3c-8,15.3-7.5,18.7,4.3,21.4c5.4,1.5,11,2.9,16.8,1.9c7.4-1,14.6-4.2,23-7
			c-1.3,4.9-2.1,7.4-2.6,9.8c-0.8,5.6-1.9,11.5-2.7,17.1c1.5-0.2,2.8-0.2,4,0c2.4,0,4.7,0.2,7.2-0.5c11.8-3.3,19.7-10.7,34.8-19.5
			c14-8.3,32-29.2,46.7-50.2c-1.7,7.3-3.8,14.4-6.5,20.9c-9.5,24.2-7.7,39.1,1.7,50.7l10.7,17.3c-1.1,2.5-2.3,5.5-3.4,8.9
			c-5,16.2-12.6,28.8-18.6,44.9c2.7,10.2,20.9,19.7,32.9,15.5c-6.8,21.9-11.5,45.8-11.7,73.6c0.2,25.4,6.2,41,13,53.1
			c1,1.7,2.5,2.5,3.9,2.5C2160,803.6,2162.9,801.6,2165.1,799"/>
	</g>
</g>
<linearGradient id="SVGID_11_" gradientUnits="userSpaceOnUse" x1="-271.64" y1="1040.2487" x2="336.2862" y2="1040.2487">
	<stop  offset="0" style="stop-color:#8B0E31"/>
	<stop  offset="0.5056" style="stop-color:#56081F"/>
	<stop  offset="1" style="stop-color:#23020D"/>
</linearGradient>
<path class="st4" d="M-271.6-334.7c0,0,316.8-132.5,420.5,97.9S394.6,61.7,311.1,439.6c-104.5,473.1,51.9,639.9,0,957.6
	S-47,2453.1-47,2453.1s-160.3-1701-154.6-1724C-195.8,706.1-271.6-334.7-271.6-334.7z"/>
<path class="st5" d="M-213.1-513.3c0,0,316.8-132.5,420.5,97.9s245.7,298.5,162.3,676.4c-104.5,473.1,51.9,639.9,0,957.6
	S11.5,2274.6,11.5,2274.6s-160.3-1701-154.6-1724C-137.3,527.5-213.1-513.3-213.1-513.3z"/>
<g class="st6">
	
		<linearGradient id="SVGID_12_" gradientUnits="userSpaceOnUse" x1="0" y1="1002.12" x2="156.0493" y2="1002.12" gradientTransform="matrix(1 0 0 -1 0 2000)">
		<stop  offset="0" style="stop-color:#8B0E31"/>
		<stop  offset="0.5056" style="stop-color:#56081F"/>
		<stop  offset="1" style="stop-color:#23020D"/>
	</linearGradient>
	<polygon id="SVGID_2_" class="st7" points="0,1997.9 0,-2.1 2800,-2.1 2800,1997.9 	"/>
</g>
<g class="st6">
	<defs>
		<rect id="SVGID_13_" y="-2.1" width="2800" height="2000"/>
	</defs>
	<clipPath id="SVGID_14_" class="st8">
		<use xlink:href="#SVGID_13_"  style="overflow:visible;"/>
	</clipPath>
	
		<linearGradient id="SVGID_15_" gradientUnits="userSpaceOnUse" x1="-161.9816" y1="1002.1201" x2="2810.2468" y2="1002.1201" gradientTransform="matrix(1 0 0 -1 0 2000)">
		<stop  offset="1.717987e-02" style="stop-color:#23020D"/>
		<stop  offset="0.1199" style="stop-color:#23020D"/>
		<stop  offset="0.524" style="stop-color:#56081F"/>
		<stop  offset="0.7337" style="stop-color:#6C0B27"/>
		<stop  offset="0.9751" style="stop-color:#8B0E31"/>
	</linearGradient>
	<polygon class="st9" points="2845.3,-37.8 2845.3,2033.6 -45.3,2033.6 -45.3,-37.8 	"/>
</g>
<g class="st6">
	<defs>
		<rect id="SVGID_16_" y="-2.1" width="2800" height="2000"/>
	</defs>
	<clipPath id="SVGID_17_" class="st8">
		<use xlink:href="#SVGID_16_"  style="overflow:visible;"/>
	</clipPath>
	<linearGradient id="SVGID_18_" gradientUnits="userSpaceOnUse" x1="-99.3015" y1="1564.88" x2="887.2" y2="1564.88">
		<stop  offset="1.717987e-02" style="stop-color:#23020D"/>
		<stop  offset="0.1199" style="stop-color:#23020D"/>
		<stop  offset="0.524" style="stop-color:#56081F"/>
		<stop  offset="0.7337" style="stop-color:#6C0B27"/>
		<stop  offset="0.9751" style="stop-color:#8B0E31"/>
	</linearGradient>
	<path class="st10" d="M603,1967.3c-51.9,4.4-109.1,28.2-164.1,57.9c86.7-3.2,169.6-17.1,242.8-36.5c-16.6-14.5-37.5-22-64.8-22
		C612.5,1966.8,607.8,1967,603,1967.3 M289.1,1969.5c-13.3,15.4-31.9,29.7-47.8,43.6c29.8,5.2,59.2,8.5,88.6,10.3
		c3.4-1.6,6.8-3.4,9.9-5.8c16.3-11.7,29.7-27.4,43.2-42.3c9.8-10.9,17.3-23.5,26.8-35.2c8.8-11.1,18.9-21.8,28.6-33.4
		C378,1908.5,327.4,1925.4,289.1,1969.5 M-46,1861.8c-18.3-0.7-35.7-1.7-53.3-3.8c-0.2,1.5,19.5,20.4,31.1,29.2
		c-8.4,7.1-16.2,13.5-24.2,19.9c84-3.3,146.4,35.6,208.9,74.5c-8-50.4-79.4-118.2-166-130.6C-48.3,1854.5-47.3,1857.8-46,1861.8
		 M122.7,1850.8c-20.5,16.7-20,44.7-3,66.7c5.7,7.5,12.2,13.9,16.6,19c17.8-14.6,33.1-29.6,50.3-42.8c38.2-29.4,49.2-63.5,43.7-98.7
		c-1.2-8.6-3.8-17-6.1-28C189.7,1797.7,154.9,1824.2,122.7,1850.8 M836.9,1711.4c-1.6-0.9-4-1.8-6.5-3.1
		c-18.2-10.2-86.2-25.5-121.1,12c-24,26.6-52.8,93.4-8.7,122.3c10.8,6.8,18.6,13.4,35.8,5.1c14.3-7.3,23.8-20.5,30.4-35.7
		c1.3-2.8,1.5-5.8,2.4-10.1c-2.7,2.1-4.2,2.9-5.6,4.5c-14.2,15.5-22.5,19.5-29.4,14.8c-6.9-4.2-12.3-29.7-4.5-43.8
		c20.9-37.5,60.3-50.1,79.8-38.1c15.5,9.6,19,30.2,6.6,60.8c-14.6,35.9-38.9,64.6-68.3,76.7c-26.8,11-53.1,15.3-79.4,18.8
		c-16.4,1.9-32.6-1.9-49.6-5.7c-21.4-4.8-43.8-9.6-67.9-2.9c-65.1,18.6-141,78.5-184.2,138.5c8.6,0.5,17.2,0.7,25.9,0.7
		c12.5-14.7,27.4-29.2,44.9-42.5c50.1-38.6,99.8-58.5,146.5-56.4c37,1.9,69.7,8.9,104,10.4c21,1,41.5,2.3,63.4-1.6
		c30.6-5.6,60.4-29,86.3-71.5c-8.3-1.7-16-3.3-24.5-5.4c35.9-32.2,64.6-69.9,74-119.8c-14.9,10.3-28.6,18.9-43,27.3
		c9.5-20,18.8-38.9,24.6-57.4c6.1-19.6,5.4-35.5-1.6-46.3C857,1679.3,847.9,1694.4,836.9,1711.4 M-11.1,1596
		c-16.8-1-50.4-2.3-50.7-1c94.1,47.6,121.8,113,137.1,193.2c20.3-9.8,40.2-70.3,36.7-102c-4.7-44.1-29.2-76.2-69.4-106.8
		c-1.1,6.1-1.8,9.6-3,14.2c-21.9-10-35.6-31.3-63.5-35.8C-19.4,1571.5-15.4,1583.6-11.1,1596 M382.2,1525.3L382.2,1525.3
		c-19.2,8.2-42.2,31.1-46.5,46.9c9.4-2.4,18.1-5.6,26.2-7c17.6-2.2,29.5,6.5,32.6,22.8c2.6,13.9-7.6,38.3-21.6,50.1
		c-22.8,19.5-47,36.6-70.6,54.5c-27.6,20.3-39.9,44.5-37.8,71.9c2.5,36.7,33.3,62.8,38.7,68.1c-47.8,60.7-104.5,111.3-162.1,157.3
		c15.9,4.6,31.7,9,47.6,12.5c52-44.2,102.6-91.1,151.5-144.8c41.6,18.3,92.6,22.4,132.5-8.4c25.7-19.9,37.6-44,47.9-69.3
		c7.8-19.1,13.8-38.6,20.4-58.1c9.2-26.5,28.4-47.9,48.6-55.8c18.5-7.2,29.6,1.9,31.2,26.1c0.1,3.2,0.3,6.2,0.7,11.5
		c12.7-16.1,17.4-32.4,20.9-47.6c6.2-29-0.6-46.8-12.8-58.4c-14.5-13.5-38.8-14.6-63.5,4.2c-9.7,6.9-22,20.9-31,34.5
		c-11.8,18-21.4,36.2-30.4,54.7c-29.2,38.8-53,64-69.2,79.1c18-26.9,31.7-55.4,43.6-84.2c10.4-24.9,19-50.1,27.3-75.5
		c1.1-3.1,1.6-6.5,2.8-12.2c-4.4,4.2-6.9,5.8-8.8,8.3c-34.5,41.7-73.3,79.5-111.9,116.5c-3.8,3.6-6.8,7.7-10.4,11.6
		c1.6-19.9,16.2-45.7,31.4-68c5.7-5.8,11-11.6,16.1-17.8c15.8-18.7,29.6-41.3,38.2-63.1c11.1-28.6,1.6-47-15-58.1
		c-9.7-6.6-20.4-10.3-32.6-10.3C406.2,1517.4,394.7,1520,382.2,1525.3 M157,1409.4c-4.1-14.5-8.4-29.1-12.9-44.8
		c-19.1,3.8-30.5,18.4-38.8,34.1c-8.1,15.6-12.3,32.9-18.6,48.8c-7.7-6.6-15.5-13.6-23.4-20.6c-24.7,29.2-28.7,59.7-6.4,95.5
		c18.3,29.1,39.9,55.8,60.7,82.2c23.6,30.3,47.5,59.2,49.2,98.8c1.7,37-18.2,69.4-49.6,95.8c-25,21.1-52.7,28.9-87.5,29.1
		c-1.1,0-4,10.3-4.6,12.3c3.1,14.5,29.1,7.9,42.1,4.6c98.2-24.9,161.7-99.4,132.2-174.9c-11.3-30-49.6-77.7-64.3-106.8
		c-12.2-23.8-23.2-47.9-17.9-76.2c6.5-33.2,38.9-65.7,80.1-58.8c23.4,3.8,41.8,23.1,41.7,46.6c-0.2,15.1-13.1,35.1-28,41.6
		c-9.7,4-19.7,5.5-27.2-1.6c-6.8-6.8-6.8-15.3-2.3-24.5c0.7-1.5,0.9-3.1,1.3-4.9c-15.1,1.2-34.1,21.8-32,37.9
		c4,28.2,67.3,50.6,96.4,31.5c26.7-17.3,41-57.8,31.5-90.4c-9.3-31.5-23.4-48-53.4-57.6c-3.2-1.3-6-2.6-8.3-3.9
		c6-15.1,10.9-28.2,15.9-42.5c-1.9-0.1-3.8-0.1-5.7-0.1C194.3,1360.4,175.8,1381.1,157,1409.4 M625.1,1108.4L625.1,1108.4
		c-9.2,12.1-14.2,32.2-16.4,58.1c-2.2,26.2-1.3,49.7,0.6,72.1c-9.7-10.6-28.8-14.1-39-6.3c2.7,10.4,6.2,19.9,7.5,31
		c1.1,7.8,1.1,16.3,1.2,24.6c-18,13.1-38.7,31-41.5,64.3c-0.5,5.3-0.3,10.2-0.3,15.3c-6.7-21.2-18.4-42.8-24.2-61.2
		c-5.3-16.4-14.7-32.1-23.9-40.4c-2.7-2.7-6.2-3.5-9.4-5.5c-2,5.5-3.6,11.2-5.6,16.2c-0.8,2.5-1.2,5.1-2.2,10
		c-6.2-6.4-11.1-12.2-17.3-16.7c-4.6-3.3-10.1-4.8-15.8-5.9c-11.8-2.6-13.8,0.2-13.8,17.4c0,5.6-0.2,11.6-0.5,19
		c-25.7-9.9-39.9,10.9-39.4,11.5c5.4,5.1,10.2,8.2,11.4,16c1.2,7.4-1.7,19-5.4,29c-7.4,19.9-2.4,53.7,11.8,66.9
		c10.2,9.5,29.2,7.7,42.6-5.3c15.5-14.4,20.2-58.7,11.6-72.6c-5.3-8.3-8.9-8.4-19.1-1.4c2.6,5.8,8,11.4,7.3,17.9
		c-0.7,7.4-5.9,17.6-11.1,23.4c-7.2,7.8-15.3,8.5-21.1,2.1c-10.1-11.4-10.3-30.9-0.9-49.4c2.6-5.1,9.3-14.5,12.7-17.1
		c14.5-10.6,31.7-13.6,42.3-6.1c11.8,8.4,19,21.9,20.4,41.9c2.7,35-15.4,89.5-13.7,124.3c1.2,32.2,24.2,45,50.9,50.2
		c11.8,2.3,42.3,5.8,48.6,8.1c31.8,11.4,59.5,9.7,76.4-19.7c17.4-30.1,26.9-86.9,45.5-116.8c10.8-17,23.2-25.7,37.6-28.1
		c13.1-1.8,26.9,8.4,35,24.6c2,3.8,3.3,15.2,3.5,21.1c-0.4,20.6-9.7,38-23.8,43.3c-8.4,3-15.3-1-17.9-11.3c-1.9-7.4-1.8-18.9,1.1-26
		c2.3-6,9.5-8.4,14.5-12.4c-5.8-10.9-9.1-12.7-17.5-7.6c-14.2,8.5-28.9,49.3-21.7,69c5.6,17.6,21.8,27.7,35.2,23.9
		c19-5.4,37.2-32,40.1-53.5c1.3-10.3,4.2-21.9,8.5-28.1c4.8-6.5,10.3-7.1,17.8-8.9c0.5-0.2,1-1.5,2-3c-4.1-22.5-19.6-18.9-31.7-25
		c3.1-6.9,5.6-12.1,8.4-17.3c8-15.3,7.5-18.7-4.3-21.4c-5.4-1.5-11-2.9-16.8-1.9c-7.4,1-14.6,4.2-23,7c1.3-4.9,2.1-7.4,2.6-9.8
		c0.8-5.6,1.9-11.5,2.7-17.1c-1.5,0.2-2.8,0.2-4,0c-2.4,0-4.7-0.2-7.2,0.5c-11.8,3.3-19.7,10.7-34.8,19.5c-14,8.3-32,29.2-46.7,50.2
		c1.7-7.3,3.8-14.4,6.5-20.9c9.5-24.2,7.7-39.1-1.7-50.7l-10.7-17.3c1.1-2.5,2.3-5.5,3.4-8.9c5-16.2,12.6-28.8,18.6-44.9
		c-2.7-10.2-20.9-19.7-32.9-15.5c6.8-21.9,11.5-45.8,11.7-73.6c-0.2-25.4-6.2-41-13-53.1c-1-1.7-2.5-2.5-3.9-2.5
		C630.2,1103.9,627.3,1105.9,625.1,1108.4"/>
</g>
<g class="st6">
	<defs>
		<rect id="SVGID_19_" y="-2.1" width="2800" height="2000"/>
	</defs>
	<clipPath id="SVGID_20_" class="st8">
		<use xlink:href="#SVGID_19_"  style="overflow:visible;"/>
	</clipPath>
	
		<linearGradient id="SVGID_21_" gradientUnits="userSpaceOnUse" x1="1354.8269" y1="1659.62" x2="2341.4285" y2="1659.62" gradientTransform="matrix(1 0 0 -1 0 2000)">
		<stop  offset="0.2251" style="stop-color:#56081F"/>
		<stop  offset="0.6241" style="stop-color:#54081E"/>
		<stop  offset="0.7678" style="stop-color:#4D071C"/>
		<stop  offset="0.8702" style="stop-color:#420618"/>
		<stop  offset="0.9525" style="stop-color:#310412"/>
		<stop  offset="1" style="stop-color:#23020D"/>
	</linearGradient>
	<path class="st11" d="M2187.2-61.9c51.9-4.4,109.1-28.2,164.1-57.9c-86.7,3.2-169.6,17.1-242.8,36.5c16.6,14.5,37.5,22,64.8,22
		C2177.7-61.4,2182.4-61.7,2187.2-61.9 M2501.1-64.2c13.3-15.4,31.9-29.7,47.8-43.6c-29.8-5.2-59.2-8.5-88.6-10.3
		c-3.4,1.6-6.8,3.4-9.9,5.8c-16.3,11.7-29.7,27.4-43.2,42.3c-9.8,10.9-17.3,23.5-26.8,35.2c-8.8,11.1-18.9,21.8-28.6,33.4
		C2412.2-3.2,2462.9-20.1,2501.1-64.2 M2836.3,43.6c18.3,0.7,35.7,1.7,53.3,3.8c0.2-1.5-19.5-20.4-31.1-29.2
		c8.4-7.1,16.2-13.5,24.2-19.9c-84,3.3-146.4-35.6-208.9-74.5c8,50.4,79.4,118.2,166,130.6C2838.6,50.8,2837.6,47.5,2836.3,43.6
		 M2667.6,54.5c20.5-16.7,20-44.7,3-66.7c-5.7-7.5-12.2-13.9-16.6-19c-17.8,14.6-33.1,29.6-50.3,42.8
		c-38.2,29.4-49.2,63.5-43.7,98.7c1.2,8.6,3.8,17,6.1,28C2600.5,107.6,2635.3,81.1,2667.6,54.5 M1953.3,193.9c1.6,0.9,4,1.8,6.5,3.1
		c18.2,10.2,86.2,25.5,121.1-12c24-26.6,52.8-93.4,8.7-122.3c-10.8-6.8-18.6-13.4-35.8-5.1c-14.3,7.3-23.8,20.5-30.4,35.7
		c-1.3,2.8-1.5,5.8-2.4,10.1c2.7-2.1,4.2-2.9,5.6-4.5c14.2-15.5,22.5-19.5,29.4-14.8c6.9,4.2,12.3,29.7,4.5,43.8
		c-20.9,37.5-60.3,50.1-79.8,38.1c-15.5-9.6-19-30.2-6.6-60.8c14.6-35.9,38.9-64.6,68.3-76.7c26.8-11,53.1-15.3,79.4-18.8
		c16.4-1.9,32.6,1.9,49.6,5.7c21.4,4.8,43.8,9.6,67.9,2.9c65.1-18.6,141-78.5,184.2-138.5c-8.6-0.5-17.2-0.7-25.9-0.7
		c-12.5,14.7-27.4,29.2-44.9,42.5c-50.1,38.6-99.8,58.5-146.5,56.4c-37-1.9-69.7-8.9-104-10.4c-21-1-41.5-2.3-63.4,1.6
		c-30.6,5.6-60.4,29-86.3,71.5c8.3,1.7,16,3.3,24.5,5.4c-35.9,32.2-64.6,69.9-74,119.8c14.9-10.3,28.6-18.9,43-27.3
		c-9.5,20-18.8,38.9-24.6,57.4c-6.1,19.6-5.4,35.5,1.6,46.3C1933.2,226,1942.4,211,1953.3,193.9 M2801.4,309.3
		c16.8,1,50.4,2.3,50.7,1c-94.1-47.6-121.8-113-137.1-193.2c-20.3,9.8-40.2,70.3-36.7,102c4.7,44.1,29.2,76.2,69.4,106.8
		c1.1-6.1,1.8-9.6,3-14.2c21.9,10,35.6,31.3,63.5,35.8C2809.7,333.8,2805.6,321.8,2801.4,309.3 M2408,380L2408,380
		c19.2-8.2,42.2-31.1,46.5-46.9c-9.4,2.4-18.1,5.6-26.2,7c-17.6,2.2-29.5-6.5-32.6-22.8c-2.6-13.9,7.6-38.3,21.6-50.1
		c22.8-19.5,47-36.6,70.6-54.5c27.6-20.3,39.9-44.5,37.8-71.9c-2.5-36.7-33.3-62.8-38.7-68.1c47.8-60.7,104.5-111.3,162.1-157.3
		c-15.9-4.6-31.7-9-47.6-12.5C2549.6-53.1,2499-6.2,2450,47.5c-41.6-18.3-92.6-22.4-132.5,8.4c-25.7,19.9-37.6,44-47.9,69.3
		c-7.8,19.1-13.8,38.6-20.4,58.1c-9.2,26.5-28.4,47.9-48.6,55.8c-18.5,7.2-29.6-1.9-31.2-26.1c-0.1-3.2-0.3-6.2-0.7-11.5
		c-12.7,16.1-17.4,32.4-20.9,47.6c-6.2,29,0.6,46.8,12.8,58.4c14.5,13.5,38.8,14.6,63.5-4.2c9.7-6.9,22-20.9,31-34.5
		c11.8-18,21.4-36.2,30.4-54.7c29.2-38.8,53-64,69.2-79.1c-18,26.9-31.7,55.4-43.6,84.2c-10.4,24.9-19,50.1-27.3,75.5
		c-1.1,3.1-1.6,6.5-2.8,12.2c4.4-4.2,6.9-5.8,8.8-8.3c34.5-41.7,73.3-79.5,111.9-116.5c3.8-3.6,6.8-7.7,10.4-11.6
		c-1.6,19.9-16.2,45.7-31.4,68c-5.7,5.8-11,11.6-16.1,17.8c-15.8,18.7-29.6,41.3-38.2,63.1c-11.1,28.6-1.6,47,15,58.1
		c9.7,6.6,20.4,10.3,32.6,10.3C2384.1,387.9,2395.5,385.3,2408,380 M2633.2,496c4.1,14.5,8.4,29.1,12.9,44.8
		c19.1-3.8,30.5-18.4,38.8-34.1c8.1-15.6,12.3-32.9,18.6-48.8c7.7,6.6,15.5,13.6,23.4,20.6c24.7-29.2,28.7-59.7,6.4-95.5
		c-18.3-29.1-39.9-55.8-60.7-82.2c-23.6-30.3-47.5-59.2-49.2-98.8c-1.7-37,18.2-69.4,49.6-95.8c25-21.1,52.7-28.9,87.5-29.1
		c1.1,0,4-10.3,4.6-12.3c-3.1-14.5-29.1-7.9-42.1-4.6c-98.2,24.9-161.7,99.4-132.2,174.9c11.3,30,49.6,77.7,64.3,106.8
		c12.2,23.8,23.2,47.9,17.9,76.2c-6.5,33.2-38.9,65.7-80.1,58.8c-23.4-3.8-41.8-23.1-41.7-46.6c0.2-15.1,13.1-35.1,28-41.6
		c9.7-4,19.7-5.5,27.2,1.6c6.8,6.8,6.8,15.3,2.3,24.5c-0.7,1.5-0.9,3.1-1.3,4.9c15.1-1.2,34.1-21.8,32-37.9
		c-4-28.2-67.3-50.6-96.4-31.5c-26.7,17.3-41,57.8-31.5,90.4c9.3,31.5,23.4,48,53.4,57.6c3.2,1.3,6,2.6,8.3,3.9
		c-6,15.1-10.9,28.2-15.9,42.5c1.9,0.1,3.8,0.1,5.7,0.1C2595.9,544.9,2614.4,524.2,2633.2,496 M2165.1,796.9L2165.1,796.9
		c9.2-12.1,14.2-32.2,16.4-58.1c2.2-26.2,1.3-49.7-0.6-72.1c9.7,10.6,28.8,14.1,39,6.3c-2.7-10.4-6.2-19.9-7.5-31
		c-1.1-7.8-1.1-16.3-1.2-24.6c18-13.1,38.7-31,41.5-64.3c0.5-5.3,0.3-10.2,0.3-15.3c6.7,21.2,18.4,42.8,24.2,61.2
		c5.3,16.4,14.7,32.1,23.9,40.4c2.7,2.7,6.2,3.5,9.4,5.5c2-5.5,3.6-11.2,5.6-16.2c0.8-2.5,1.2-5.1,2.2-10
		c6.2,6.4,11.1,12.2,17.3,16.7c4.6,3.3,10.1,4.8,15.8,5.9c11.8,2.6,13.8-0.2,13.8-17.4c0-5.6,0.2-11.6,0.5-19
		c25.7,9.9,39.9-10.9,39.4-11.5c-5.4-5.1-10.2-8.2-11.4-16c-1.2-7.4,1.7-19,5.4-29c7.4-19.9,2.4-53.7-11.8-66.9
		c-10.2-9.5-29.2-7.7-42.6,5.3c-15.5,14.4-20.2,58.7-11.6,72.6c5.3,8.3,8.9,8.4,19.1,1.4c-2.6-5.8-8-11.4-7.3-17.9
		c0.7-7.4,5.9-17.6,11.1-23.4c7.2-7.8,15.3-8.5,21.1-2.1c10.1,11.4,10.3,30.9,0.9,49.4c-2.6,5.1-9.3,14.5-12.7,17.1
		c-14.5,10.6-31.7,13.6-42.3,6.1c-11.8-8.4-19-21.9-20.4-41.9c-2.7-35,15.4-89.5,13.7-124.3c-1.2-32.2-24.2-45-50.9-50.2
		c-11.8-2.3-42.3-5.8-48.6-8.1c-31.8-11.4-59.5-9.7-76.4,19.7c-17.4,30.1-26.9,86.9-45.5,116.8c-10.8,17-23.2,25.7-37.6,28.1
		c-13.1,1.8-26.9-8.4-35-24.6c-2-3.8-3.3-15.2-3.5-21.1c0.4-20.6,9.7-38,23.8-43.3c8.4-3,15.3,1,17.9,11.3c1.9,7.4,1.8,18.9-1.1,26
		c-2.3,6-9.5,8.4-14.5,12.4c5.8,10.9,9.1,12.7,17.5,7.6c14.2-8.5,28.9-49.3,21.7-69c-5.6-17.6-21.8-27.7-35.2-23.9
		c-19,5.4-37.2,32-40.1,53.5c-1.3,10.3-4.2,21.9-8.5,28.1c-4.8,6.5-10.3,7.1-17.8,8.9c-0.5,0.2-1,1.5-2,3
		c4.1,22.5,19.6,18.9,31.7,25c-3.1,6.9-5.6,12.1-8.4,17.3c-8,15.3-7.5,18.7,4.3,21.4c5.4,1.5,11,2.9,16.8,1.9c7.4-1,14.6-4.2,23-7
		c-1.3,4.9-2.1,7.4-2.6,9.8c-0.8,5.6-1.9,11.5-2.7,17.1c1.5-0.2,2.8-0.2,4,0c2.4,0,4.7,0.2,7.2-0.5c11.8-3.3,19.7-10.7,34.8-19.5
		c14-8.3,32-29.2,46.7-50.2c-1.7,7.3-3.8,14.4-6.5,20.9c-9.5,24.2-7.7,39.1,1.7,50.7l10.7,17.3c-1.1,2.5-2.3,5.5-3.4,8.9
		c-5,16.2-12.6,28.8-18.6,44.9c2.7,10.2,20.9,19.7,32.9,15.5c-6.8,21.9-11.5,45.8-11.7,73.6c0.2,25.4,6.2,41,13,53.1
		c1,1.7,2.5,2.5,3.9,2.5C2160,801.5,2162.9,799.5,2165.1,796.9"/>
</g>
</svg>
