<?xml version="1.0" encoding="utf-8"?>
<!-- Generator: Adobe Illustrator 25.0.0, SVG Export Plug-In . SVG Version: 6.00 Build 0)  -->
<svg version="1.1" id="Camada_1" xmlns="http://www.w3.org/2000/svg" xmlns:xlink="http://www.w3.org/1999/xlink" x="0px" y="0px"
	 viewBox="0 0 40 40" style="enable-background:new 0 0 40 40;" xml:space="preserve">
<style type="text/css">
	.st0{fill:#FF0057;}
	.st1{fill:none;stroke:#FF0057;stroke-width:2;stroke-linejoin:round;stroke-miterlimit:10;}
</style>
<image style="display:none;overflow:visible;" width="1300" height="821" xlink:href="8268A78D.jpg"  transform="matrix(0.2385 0 0 0.2363 -135 -100)">
</image>
<image style="display:none;overflow:visible;opacity:0.54;" width="1300" height="821" xlink:href="8268A78F.jpg"  transform="matrix(0.2385 0 0 0.2363 -135 -100)">
</image>
<g>
	<path class="st0" d="M38,2v36H2V2H38 M40,0H0v40h40V0L40,0z"/>
</g>
<line class="st1" x1="1.5" y1="15.5" x2="38.5" y2="37.5"/>
<polyline class="st1" points="9,20 9,11.9 16,9 30,17 30,27 24.9,29.4 22.6,28 22.7,19.2 29,17 "/>
<line class="st1" x1="23" y1="20" x2="10" y2="12"/>
<polyline class="st1" points="29,26.5 15.5,17.9 16,9 "/>
<line class="st1" x1="9.9" y1="20.5" x2="15.5" y2="17.9"/>
<line class="st1" x1="32" y1="34" x2="20" y2="39"/>
<line class="st1" x1="27" y1="31" x2="9" y2="39"/>
<line class="st1" x1="1" y1="38" x2="24" y2="28"/>
<line class="st1" x1="18" y1="25" x2="1" y2="32"/>
<line class="st1" x1="13" y1="22" x2="1" y2="28"/>
<line class="st1" x1="9" y1="20" x2="1" y2="23"/>
<polygon class="st1" points="27,8 31,11.9 35,8 31,4 "/>
</svg>
