<?xml version="1.0" encoding="utf-8"?>
<!-- Generator: Adobe Illustrator 25.0.0, SVG Export Plug-In . SVG Version: 6.00 Build 0)  -->
<svg version="1.1" id="Camada_1" xmlns="http://www.w3.org/2000/svg" xmlns:xlink="http://www.w3.org/1999/xlink" x="0px" y="0px"
	 viewBox="0 0 40 40" style="enable-background:new 0 0 40 40;" xml:space="preserve">
<style type="text/css">
	.st0{fill:none;stroke:#00B59B;stroke-miterlimit:10;}
	.st1{fill:#00B59B;}
	.st2{fill:none;stroke:#00B59B;stroke-width:0.75;stroke-miterlimit:10;}
</style>
<image style="display:none;overflow:visible;enable-background:new    ;" width="1300" height="818" xlink:href="8268A78D.jpg"  transform="matrix(0.2387 0 0 0.2365 -135.1615 -99.7462)">
</image>
<image style="display:none;overflow:visible;opacity:0.54;enable-background:new    ;" width="1300" height="818" xlink:href="8268A78F.jpg"  transform="matrix(0.2387 0 0 0.2365 -135.1615 -99.7462)">
</image>
<image style="display:none;overflow:visible;opacity:0.54;" width="365" height="288" xlink:href="3C76FBD4.jpg"  transform="matrix(0.1444 0 0 0.1444 -3.1 -1.5912)">
</image>
<rect x="13.5" y="0.7" class="st0" width="25.7" height="25.7"/>
<g>
	<path class="st1" d="M26.3,7c3.6,0,6.5,2.9,6.5,6.4s-2.9,6.4-6.5,6.4s-6.5-2.9-6.5-6.4S22.8,7,26.3,7 M26.3,6.3
		c-4,0-7.3,3.2-7.3,7.2c0,4,3.3,7.2,7.3,7.2s7.3-3.2,7.3-7.2C33.6,9.5,30.4,6.3,26.3,6.3L26.3,6.3z"/>
</g>
<g>
	<line class="st2" x1="19.5" y1="1" x2="19.5" y2="13.1"/>
</g>
<g>
	<line class="st2" x1="33.3" y1="0.7" x2="33.3" y2="13.9"/>
</g>
<line class="st2" x1="22.8" y1="0.7" x2="22.8" y2="7.6"/>
<line class="st2" x1="26.3" y1="0.7" x2="26.3" y2="6.8"/>
<line class="st2" x1="29.7" y1="1" x2="29.7" y2="7.6"/>
<polyline class="st2" points="26.3,6.8 26.3,10.5 29.5,12.5 32.8,11.3 "/>
<polyline class="st2" points="30.2,19 28.2,16.2 24.3,16.1 22.4,18.9 "/>
<polyline class="st2" points="29.7,12.3 28.2,16.2 24.3,16.2 23.4,12.5 19.8,11.3 "/>
<line class="st2" x1="23.4" y1="12.5" x2="26.3" y2="10.5"/>
<path class="st2" d="M13.5,26.4"/>
<g>
	<path class="st1" d="M26,27.1v11H13.7v-11H26 M26.8,26.4H12.9v12.5h13.8V26.4L26.8,26.4z"/>
</g>
<g>
	<path class="st1" d="M19.9,28.2c2.2,0,4,1.8,4,4c0,2.2-1.8,4-4,4s-4-1.8-4-4C15.9,30,17.7,28.2,19.9,28.2 M19.9,27.5
		c-2.6,0-4.8,2.1-4.8,4.8c0,2.6,2.1,4.8,4.8,4.8c2.6,0,4.8-2.1,4.8-4.8C24.7,29.6,22.5,27.5,19.9,27.5L19.9,27.5z"/>
</g>
<g>
	<path class="st1" d="M13.1,13.8v11.8H1.7V13.8H13.1 M13.9,13H1v13.3h12.9V13L13.9,13z"/>
</g>
<g>
	<line class="st2" x1="1.4" y1="25.7" x2="7.2" y2="21.6"/>
</g>
<line class="st2" x1="13.4" y1="25.6" x2="7.5" y2="21.5"/>
<polyline class="st2" points="7.4,21.7 7.4,15.8 11.9,15.8 11,17.3 11.9,18.8 7.6,18.8 7.4,15.8 "/>
<rect x="7.3" y="15.7" class="st1" width="4.1" height="3.1"/>
<path class="st0" d="M9.5,22.8c-0.3,0.6-1,1-1.8,1.1c-1,0.1-1.9-0.5-2.2-1.3"/>
<polygon class="st0" points="17.6,32.2 20,34.5 22.5,32.2 20,29.8 "/>
</svg>
