<?xml version="1.0" encoding="utf-8"?>
<!-- Generator: Adobe Illustrator 25.0.0, SVG Export Plug-In . SVG Version: 6.00 Build 0)  -->
<svg version="1.1" id="Camada_1" xmlns="http://www.w3.org/2000/svg" xmlns:xlink="http://www.w3.org/1999/xlink" x="0px" y="0px"
	 viewBox="0 0 40 40" style="enable-background:new 0 0 40 40;" xml:space="preserve">
<style type="text/css">
	.st0{fill:#FF0057;}
	.st1{fill:none;stroke:#FF0057;stroke-miterlimit:10;}
	.st2{fill:#FF0057;stroke:#FF0057;stroke-miterlimit:10;}
</style>
<image style="display:none;overflow:visible;enable-background:new    ;" width="1300" height="818" xlink:href="8268A78D.jpg"  transform="matrix(0.2387 0 0 0.2365 -135.1615 -99.7462)">
</image>
<image style="display:none;overflow:visible;opacity:0.54;enable-background:new    ;" width="1300" height="818" xlink:href="8268A78F.jpg"  transform="matrix(0.2387 0 0 0.2365 -135.1615 -99.7462)">
</image>
<image style="display:none;overflow:visible;opacity:0.54;" width="365" height="288" xlink:href="E72143A1.jpg"  transform="matrix(0.1444 0 0 0.1444 -3.1 -1.5912)">
</image>
<image style="display:none;overflow:visible;opacity:0.58;" width="305" height="374" xlink:href="E72143A7.jpg"  transform="matrix(0.1438 0 0 0.1438 -2.397 -5.175)">
</image>
<g>
	<path class="st0" d="M37.5,14v23.6H13.9V14H37.5 M38.5,13H12.9v25.6h25.6V13L38.5,13z"/>
</g>
<g>
	<path class="st0" d="M25,1.5v11.1H13.9V1.5H25 M26,0.5H12.9v13.1H26V0.5L26,0.5z"/>
</g>
<g>
	<path class="st0" d="M12.3,26.3v11.4H1.6V26.3H12.3 M13.3,25.3H0.6v13.4h12.7V25.3L13.3,25.3z"/>
</g>
<g>
	<line class="st1" x1="0.9" y1="38.2" x2="13.1" y2="26.1"/>
</g>
<g>
	<path class="st0" d="M7.3,32.1L7.3,32.1C7.3,32.1,7.3,32.1,7.3,32.1 M7.3,31.1c-0.6,0-1,0.5-1,1c0,0.6,0.5,1,1,1s1-0.5,1-1
		C8.3,31.5,7.9,31.1,7.3,31.1L7.3,31.1z"/>
</g>
<g>
	<path class="st0" d="M7.1,28.6c1.8,0,3.4,1.6,3.4,3.5S9,35.6,7.1,35.6S3.8,34,3.8,32.1S5.3,28.6,7.1,28.6 M7.1,27.6
		c-2.4,0-4.4,2-4.4,4.5s1.9,4.5,4.4,4.5s4.4-2,4.4-4.5S9.5,27.6,7.1,27.6L7.1,27.6z"/>
</g>
<g>
	<line class="st1" x1="29.2" y1="13.9" x2="29.2" y2="37.8"/>
</g>
<line class="st1" x1="34.2" y1="37.8" x2="34.2" y2="13.4"/>
<line class="st1" x1="29.2" y1="17.5" x2="33.9" y2="17.5"/>
<line class="st1" x1="29.2" y1="21.7" x2="34.2" y2="21.7"/>
<line class="st1" x1="29.2" y1="25.9" x2="33.9" y2="25.9"/>
<line class="st1" x1="29.4" y1="30.1" x2="33.9" y2="30.1"/>
<line class="st1" x1="29.4" y1="34.2" x2="34.1" y2="34.2"/>
<polygon class="st2" points="24.4,23.3 26.9,25.9 24.4,28.3 21.9,25.7 "/>
<path class="st1" d="M24.4,30.1c-2.5,0-4.5-2-4.5-4.5c0-2.5,2-4.5,4.5-4.5c0.1,0,0.2,0,0.4,0v-3.8c-5.2,0.3-9.2,4-9.2,8.6
	s4.1,8.3,9.2,8.6v-4.4C24.6,30.1,24.5,30.1,24.4,30.1z"/>
<g>
	<path class="st0" d="M16.5,3.7v7.1h-2.7V3.7H16.5 M17.5,2.7h-4.7v9.1h4.7V2.7L17.5,2.7z"/>
</g>
<g>
	<path class="st0" d="M24.7,3.7v7.1h-2.1V3.7H24.7 M25.7,2.7h-4.1v9.1h4.1V2.7L25.7,2.7z"/>
</g>
<g>
	<path class="st0" d="M18.1,5.6c0.4,0.2,0.7,0.9,0.7,1.7c0,0.8-0.3,1.5-0.7,1.7V5.6 M17.8,4.5c-0.3,0-0.5,0.1-0.7,0.2v5.2
		c0.2,0.1,0.5,0.2,0.7,0.2c1.1,0,2-1.2,2-2.8C19.8,5.7,18.9,4.5,17.8,4.5L17.8,4.5z"/>
</g>
<g>
	<path class="st0" d="M21,5.6v3.2c-0.6-0.1-1.1-0.8-1.1-1.6C19.9,6.4,20.4,5.7,21,5.6 M21.1,4.6c-1.2,0-2.2,1.2-2.2,2.6
		c0,1.4,1,2.6,2.2,2.6c0.3,0,0.6-0.1,0.9-0.2V4.9C21.7,4.7,21.4,4.6,21.1,4.6L21.1,4.6z"/>
</g>
<g>
	<path class="st0" d="M15.6,6.8c-0.2,0-0.4,0.2-0.4,0.4s0.2,0.4,0.4,0.4S16,7.5,16,7.3S15.8,6.8,15.6,6.8L15.6,6.8z"/>
</g>
<g>
	<path class="st0" d="M23.5,6.8c-0.2,0-0.5,0.2-0.5,0.4s0.2,0.4,0.5,0.4c0.2,0,0.4-0.2,0.4-0.4S23.7,6.8,23.5,6.8L23.5,6.8z"/>
</g>
</svg>
