<?xml version="1.0" encoding="utf-8"?>
<!-- Generator: Adobe Illustrator 25.0.0, SVG Export Plug-In . SVG Version: 6.00 Build 0)  -->
<svg version="1.1" id="Camada_1" xmlns="http://www.w3.org/2000/svg" xmlns:xlink="http://www.w3.org/1999/xlink" x="0px" y="0px"
	 viewBox="0 0 40 40" style="enable-background:new 0 0 40 40;" xml:space="preserve">
<style type="text/css">
	.st0{fill:#FF0057;}
	.st1{fill:none;stroke:#FF0057;stroke-width:3;stroke-miterlimit:10;}
	.st2{fill:none;stroke:#FF0057;stroke-width:2.5;stroke-miterlimit:10;}
</style>
<image style="display:none;overflow:visible;enable-background:new    ;" width="1300" height="818" xlink:href="8268A78D.jpg"  transform="matrix(0.2387 0 0 0.2365 -135.1615 -99.7462)">
</image>
<image style="display:none;overflow:visible;opacity:0.54;enable-background:new    ;" width="1300" height="818" xlink:href="8268A78F.jpg"  transform="matrix(0.2387 0 0 0.2365 -135.1615 -99.7462)">
</image>
<image style="display:none;overflow:visible;opacity:0.54;" width="365" height="288" xlink:href="B093A46D.jpg"  transform="matrix(0.1444 0 0 0.1444 -3.1 -1.5912)">
</image>
<g>
	<path class="st0" d="M37,3v34H3V3H37 M40,0H0v40h40V0L40,0z"/>
</g>
<g>
	<path class="st0" d="M19.6,12.3c4.5,0,8.1,3.6,8.1,8s-3.6,8-8.1,8s-8.1-3.6-8.1-8S15.1,12.3,19.6,12.3 M19.6,9.3
		c-6.1,0-11.1,4.9-11.1,11s5,11,11.1,11s11.1-4.9,11.1-11S25.7,9.3,19.6,9.3L19.6,9.3z"/>
</g>
<g>
	<line class="st1" x1="10" y1="1.2" x2="10" y2="19.6"/>
</g>
<g>
	<line class="st1" x1="29.1" y1="0.7" x2="29.1" y2="20.9"/>
</g>
<line class="st2" x1="15.2" y1="0.7" x2="15.2" y2="11.3"/>
<line class="st2" x1="19.9" y1="0.7" x2="19.9" y2="10.1"/>
<line class="st2" x1="24.7" y1="2.2" x2="24.7" y2="12.3"/>
<polyline class="st1" points="19.5,10.1 19.5,15.7 24.3,18.8 29.5,17 "/>
<polyline class="st1" points="25.5,28.7 22.4,24.4 16.5,24.3 13.5,28.6 "/>
<polyline class="st1" points="24.7,18.5 22.4,24.4 16.5,24.4 15.1,18.8 9.5,17 "/>
<line class="st1" x1="15.1" y1="18.8" x2="19.5" y2="15.7"/>
<path class="st1" d="M-0.2,40"/>
</svg>
