<?xml version="1.0" encoding="utf-8"?>
<!-- Generator: Adobe Illustrator 25.0.0, SVG Export Plug-In . SVG Version: 6.00 Build 0)  -->
<svg version="1.1" id="Camada_1" xmlns="http://www.w3.org/2000/svg" xmlns:xlink="http://www.w3.org/1999/xlink" x="0px" y="0px"
	 viewBox="0 0 40 40" style="enable-background:new 0 0 40 40;" xml:space="preserve">
<style type="text/css">
	.st0{fill:#FF0057;}
	.st1{fill:none;stroke:#FF0057;stroke-width:3;stroke-miterlimit:10;}
</style>
<image style="display:none;overflow:visible;enable-background:new    ;" width="1300" height="818" xlink:href="8268A78D.jpg"  transform="matrix(0.2387 0 0 0.2365 -135.1615 -99.7462)">
</image>
<image style="display:none;overflow:visible;opacity:0.54;enable-background:new    ;" width="1300" height="818" xlink:href="8268A78F.jpg"  transform="matrix(0.2387 0 0 0.2365 -89.8415 -55.2274)">
</image>
<image style="display:none;overflow:visible;opacity:0.54;" width="365" height="288" xlink:href="6AA1F8B1.jpg"  transform="matrix(0.1444 0 0 0.1444 -3.1 -1.5912)">
</image>
<g>
	<path class="st0" d="M37.5,2.5v35h-35v-35H37.5 M40,0H0v40h40V0L40,0z"/>
</g>
<path class="st1" d="M-0.2,40"/>
<g>
	<path class="st0" d="M20,8.7c5.9,0,10.8,4.9,10.8,11s-4.8,11-10.8,11s-10.8-4.9-10.8-11S14,8.7,20,8.7 M20,6.7
		c-7.1,0-12.8,5.8-12.8,13s5.7,13,12.8,13s12.8-5.8,12.8-13S27,6.7,20,6.7L20,6.7z"/>
</g>
<line class="st1" x1="38.6" y1="1.2" x2="1.6" y2="38"/>
<g>
	<path class="st0" d="M20,22.9c-1.6,0-2.9-1.3-2.9-2.9c0-1.6,1.3-2.9,2.9-2.9s2.9,1.3,2.9,2.9C22.9,21.6,21.6,22.9,20,22.9z"/>
	<path class="st0" d="M20,18.6c0.8,0,1.4,0.6,1.4,1.4s-0.6,1.4-1.4,1.4s-1.4-0.6-1.4-1.4S19.2,18.6,20,18.6 M20,15.6
		c-2.5,0-4.4,2-4.4,4.4s2,4.4,4.4,4.4s4.4-2,4.4-4.4S22.5,15.6,20,15.6L20,15.6z"/>
</g>
</svg>
