<?xml version="1.0" encoding="utf-8"?>
<!-- Generator: Adobe Illustrator 25.0.0, SVG Export Plug-In . SVG Version: 6.00 Build 0)  -->
<svg version="1.1" id="Camada_1" xmlns="http://www.w3.org/2000/svg" xmlns:xlink="http://www.w3.org/1999/xlink" x="0px" y="0px"
	 viewBox="0 0 40 40" style="enable-background:new 0 0 40 40;" xml:space="preserve">
<style type="text/css">
	.st0{fill:none;stroke:#FF0057;stroke-width:2;stroke-miterlimit:10;}
	.st1{fill:#FF0057;}
	.st2{fill:#FF0057;stroke:#FF0057;stroke-miterlimit:10;}
</style>
<image style="display:none;overflow:visible;enable-background:new    ;" width="1300" height="818" xlink:href="8268A78D.jpg"  transform="matrix(0.2387 0 0 0.2365 -135.1615 -99.7462)">
</image>
<image style="display:none;overflow:visible;opacity:0.54;enable-background:new    ;" width="1300" height="818" xlink:href="8268A78F.jpg"  transform="matrix(0.2387 0 0 0.2365 -135.1615 -99.7462)">
</image>
<image style="display:none;overflow:visible;opacity:0.54;" width="365" height="288" xlink:href="24B04CF8.jpg"  transform="matrix(0.1444 0 0 0.1444 -3.1 -1.5912)">
</image>
<path class="st0" d="M38.7,40"/>
<g>
	<path class="st1" d="M38,2v36H2V2H38 M40,0H0v40h40V0L40,0z"/>
</g>
<g>
	<line class="st0" x1="1.1" y1="38" x2="19.4" y2="25.7"/>
</g>
<line class="st0" x1="38.5" y1="37.6" x2="20.3" y2="25.5"/>
<polyline class="st0" points="20,26 20,8.4 33.8,8.4 31.1,12.8 33.8,17.2 20.6,17.2 20,8.4 "/>
<rect x="19.5" y="7.8" class="st2" width="12.7" height="9.4"/>
<path class="st0" d="M26.4,29.3c-1.1,1.8-3.3,3.1-5.7,3.2c-3,0.2-5.9-1.4-6.9-3.9"/>
</svg>
